<svg width="100%" height="100%" viewBox="0 0 16 16" xmlns="http://www.w3.org/2000/svg">
  <g style="fill:#000;">
    <path id="Bottom" d="M8,15l-5.183,-5.183l1.816,-1.817l-1.816,-1.816l5.183,-5.184l5.183,5.184l-1.816,1.816l1.816,1.817l-5.183,5.183l0,0ZM8,13.341l3.525,-3.524l-1.817,-1.817l1.817,-1.816l-3.525,-3.525l-3.525,3.525l1.817,1.816l-1.817,1.817l3.525,3.524Z" />
    <path id="Top" d="M8,11.367l-5.183,-5.184l5.183,-5.183l5.183,5.183l-5.183,5.184ZM8,9.708l3.525,-3.525l-3.525,-3.524l-3.525,3.524l3.525,3.525Z" />
  </g>
</svg>
