<svg width="100%" height="100%" viewBox="0 0 16 16" xmlns="http://www.w3.org/2000/svg">
  <g style="fill:#000;">
    <path id="Bottom" d="M8,16l-5.924,-5.924l2.076,-2.076l-2.076,-2.076l5.924,-5.924l5.924,5.924l-2.076,2.076l2.076,2.076l-5.924,5.924l0,0ZM8,14.105l4.028,-4.029l-2.076,-2.076l2.076,-2.076l-4.028,-4.028l-4.028,4.028l2.076,2.076l-2.076,2.076l4.028,4.029Z" />
    <path id="Top" d="M8,11.848l-5.924,-5.924l5.924,-5.924l5.924,5.924l-5.924,5.924ZM8,9.952l4.028,-4.028l-4.028,-4.028l-4.028,4.028l4.028,4.028Z" />
  </g>
</svg>
