<svg class="name" viewBox="0 0 1637 360">
  <g class="wrap">
    <path d="M0,355l59,0l11,-69.5l55.5,0l11.5,69.5l61,0l-66.5,-351l-65,0l-66.5,351ZM79,230.5l19,-115.5l18.5,115.5l-37.5,0Z" />
    <path d="M246.5,355l61,0l0,-122l11.5,0l39.5,122l65,0l-47,-142c23,-17.5 41,-46.5 41,-92l0,-4.5c0,-78.5 -45.5,-111.5 -108,-111.5l-63,0l0,350ZM307.5,178l0,-116l1.5,0c26.5,0 47.5,11.5 47.5,55.5l0,4c0,41 -19.5,56.5 -46,56.5l-3,0Z" />
    <path d="M475.5,355l61,0l0,-122l11.5,0l39.5,122l65,0l-47,-142c23,-17.5 41,-46.5 41,-92l0,-4.5c0,-78.5 -45.5,-111.5 -108,-111.5l-63,0l0,350ZM536.5,178l0,-116l1.5,0c26.5,0 47.5,11.5 47.5,55.5l0,4c0,41 -19.5,56.5 -46,56.5l-3,0Z" />
    <path d="M791.5,360c55.5,0 93,-55.5 93,-171l0,-18c0,-115.5 -37.5,-171 -93,-171c-55.5,0 -93,55.5 -93,171l0,18c0,115.5 37.5,171 93,171ZM791.5,304c-18.5,0 -31,-25 -31,-115l0,-18c0,-90 12.5,-115 31,-115c18.5,0 31,25 31,115l0,18c0,90 -12.5,115 -31,115Z" />
    <path d="M944.5,355l59.5,0l0,-185.5l64.5,185.5l54,0l0,-350l-59.5,0l0,177l-61.5,-177l-57,0l0,350Z" />
    <path d="M1225.18,354.94l48.79,-48.801l-49.144,-49.277l-48.79,48.924l49.144,49.154Z" />
    <rect x="1328.5" y="5" width="61" height="350" />
    <path d="M1543.5,360c55.5,0 93,-55.5 93,-171l0,-18c0,-115.5 -37.5,-171 -93,-171c-55.5,0 -93,55.5 -93,171l0,18c0,115.5 37.5,171 93,171ZM1543.5,304c-18.5,0 -31,-25 -31,-115l0,-18c0,-90 12.5,-115 31,-115c18.5,0 31,25 31,115l0,18c0,90 -12.5,115 -31,115Z" />
  </g>
</svg>
